<svg width="22" height="25" viewBox="0 0 22 25" fill="none" xmlns="http://www.w3.org/2000/svg">
<path id="Vector" d="M14.75 18.5H21L19.2437 16.7438C19.0079 16.5078 18.8208 16.2278 18.6932 15.9196C18.5656 15.6114 18.4999 15.2811 18.5 14.9475V11C18.5002 9.44867 18.0195 7.93543 17.124 6.66861C16.2286 5.40179 14.9625 4.4437 13.5 3.92625V3.5C13.5 2.83696 13.2366 2.20107 12.7678 1.73223C12.2989 1.26339 11.663 1 11 1C10.337 1 9.70107 1.26339 9.23223 1.73223C8.76339 2.20107 8.5 2.83696 8.5 3.5V3.92625C5.5875 4.95625 3.5 7.735 3.5 11V14.9488C3.5 15.6213 3.2325 16.2675 2.75625 16.7438L1 18.5H7.25M14.75 18.5V19.75C14.75 20.7446 14.3549 21.6984 13.6517 22.4017C12.9484 23.1049 11.9946 23.5 11 23.5C10.0054 23.5 9.05161 23.1049 8.34835 22.4017C7.64509 21.6984 7.25 20.7446 7.25 19.75V18.5M14.75 18.5H7.25" stroke="black" stroke-width="2" stroke-linecap="round" stroke-linejoin="round"/>
</svg>
