<svg viewBox="0 0 40 39" fill="none" xmlns="http://www.w3.org/2000/svg">
<g id="Cog">
<path id="Vector" fill-rule="evenodd" clip-rule="evenodd" d="M22.98 6.62201C22.22 3.62274 17.78 3.62274 17.02 6.62201C16.9065 7.0727 16.684 7.49127 16.3704 7.84365C16.0569 8.19604 15.6613 8.47229 15.2157 8.64992C14.7701 8.82755 14.2872 8.90153 13.8063 8.86586C13.3253 8.83019 12.8599 8.68587 12.448 8.44464C9.70399 6.83734 6.56399 9.85583 8.23599 12.4937C9.31599 14.1971 8.35799 16.4196 6.34199 16.8907C3.21999 17.6193 3.21999 21.8894 6.34199 22.6162C6.81094 22.7254 7.24644 22.9395 7.61301 23.2412C7.97958 23.5428 8.26686 23.9234 8.45147 24.3519C8.63607 24.7805 8.71277 25.2449 8.67533 25.7074C8.63788 26.1698 8.48735 26.6172 8.23599 27.0132C6.56399 29.651 9.70399 32.6695 12.448 31.0622C12.8599 30.8206 13.3253 30.6758 13.8064 30.6399C14.2874 30.6039 14.7705 30.6776 15.2163 30.855C15.6622 31.0325 16.0581 31.3087 16.3718 31.6611C16.6856 32.0134 16.9084 32.4321 17.022 32.8829C17.78 35.8841 22.222 35.8841 22.978 32.8829C23.092 32.4323 23.315 32.014 23.6288 31.6618C23.9426 31.3097 24.3385 31.0337 24.7842 30.8563C25.2298 30.6789 25.7128 30.6051 26.1937 30.6408C26.6746 30.6766 27.14 30.821 27.552 31.0622C30.296 32.6695 33.436 29.651 31.764 27.0132C31.5131 26.6171 31.3629 26.1698 31.3257 25.7075C31.2885 25.2451 31.3652 24.7809 31.5498 24.3525C31.7343 23.924 32.0214 23.5435 32.3878 23.2418C32.7541 22.9401 33.1893 22.7258 33.658 22.6162C36.78 21.8875 36.78 17.6174 33.658 16.8907C33.189 16.7814 32.7535 16.5673 32.387 16.2657C32.0204 15.964 31.7331 15.5834 31.5485 15.1549C31.3639 14.7263 31.2872 14.2619 31.3246 13.7995C31.3621 13.337 31.5126 12.8896 31.764 12.4937C33.436 9.85583 30.296 6.83734 27.552 8.44464C27.1401 8.68628 26.6747 8.83098 26.1936 8.86698C25.7126 8.90297 25.2294 8.82924 24.7836 8.65178C24.3378 8.47432 23.9419 8.19816 23.6281 7.84577C23.3144 7.49338 23.0916 7.07474 22.978 6.62393L22.98 6.62201ZM20 25.5212C21.5913 25.5212 23.1174 24.9136 24.2426 23.8319C25.3678 22.7502 26 21.2831 26 19.7534C26 18.2237 25.3678 16.7566 24.2426 15.6749C23.1174 14.5933 21.5913 13.9856 20 13.9856C18.4087 13.9856 16.8826 14.5933 15.7573 15.6749C14.6321 16.7566 14 18.2237 14 19.7534C14 21.2831 14.6321 22.7502 15.7573 23.8319C16.8826 24.9136 18.4087 25.5212 20 25.5212Z" fill="#F9F9F9"/>
</g>
</svg>
