<svg viewBox="0 0 40 40" fill="none" xmlns="http://www.w3.org/2000/svg">
<path id="Vector" d="M21.7702 1.42057C21.3007 0.970022 20.6639 0.716919 20 0.716919C19.3361 0.716919 18.6993 0.970022 18.2298 1.42057L0.702859 18.2436C0.246763 18.6969 -0.00561016 19.3039 9.4652e-05 19.9341C0.00579946 20.5642 0.269126 21.167 0.73336 21.6126C1.19759 22.0582 1.82559 22.3109 2.48209 22.3164C3.13859 22.3219 3.77107 22.0796 4.2433 21.6419L4.97692 20.9377V36.7658C4.97692 37.4032 5.24072 38.0145 5.71028 38.4652C6.17985 38.9159 6.81671 39.1691 7.48077 39.1691H12.4885C13.1525 39.1691 13.7894 38.9159 14.2589 38.4652C14.7285 38.0145 14.9923 37.4032 14.9923 36.7658V31.9592C14.9923 31.3218 15.2561 30.7105 15.7257 30.2598C16.1952 29.8091 16.8321 29.5559 17.4962 29.5559H22.5038C23.1679 29.5559 23.8048 29.8091 24.2743 30.2598C24.7439 30.7105 25.0077 31.3218 25.0077 31.9592V36.7658C25.0077 37.4032 25.2715 38.0145 25.741 38.4652C26.2106 38.9159 26.8475 39.1691 27.5115 39.1691H32.5192C33.1833 39.1691 33.8201 38.9159 34.2897 38.4652C34.7593 38.0145 35.0231 37.4032 35.0231 36.7658V20.9377L35.7567 21.6419C36.2289 22.0796 36.8614 22.3219 37.5179 22.3164C38.1744 22.3109 38.8024 22.0582 39.2666 21.6126C39.7309 21.167 39.9942 20.5642 39.9999 19.9341C40.0056 19.3039 39.7532 18.6969 39.2971 18.2436L21.7702 1.42057Z" fill="#F9F9F9"/>
</svg>
