<svg width="25" height="22" viewBox="0 0 25 22" fill="none" xmlns="http://www.w3.org/2000/svg">
<path id="Vector" d="M6 6H18.5M6 11H11M12.25 21L7.25 16H3.5C2.83696 16 2.20107 15.7366 1.73223 15.2678C1.26339 14.7989 1 14.163 1 13.5V3.5C1 2.83696 1.26339 2.20107 1.73223 1.73223C2.20107 1.26339 2.83696 1 3.5 1H21C21.663 1 22.2989 1.26339 22.7678 1.73223C23.2366 2.20107 23.5 2.83696 23.5 3.5V13.5C23.5 14.163 23.2366 14.7989 22.7678 15.2678C22.2989 15.7366 21.663 16 21 16H17.25L12.25 21Z" stroke="black" stroke-width="2" stroke-linecap="round" stroke-linejoin="round"/>
</svg>
