<svg viewBox="0 0 40 40" fill="none" xmlns="http://www.w3.org/2000/svg">
<g id="order_approve">
<mask id="mask0_4_37" style="mask-type:alpha" maskUnits="userSpaceOnUse" x="0" y="0" width="40" height="40">
<rect id="Bounding box" y="0.759644" width="40" height="38.4521" fill="#D9D9D9"/>
</mask>
<g mask="url(#mask0_4_37)">
<path id="order_approve_2" d="M28.7917 33.2036L34.5833 27.6761L32.8333 25.9939L28.7917 29.799L27.1667 28.2369L25.4167 29.9592L28.7917 33.2036ZM10 15.1792H30V11.9749H10V15.1792ZM30 37.6096C27.6944 37.6096 25.7292 36.8285 24.1042 35.2664C22.4792 33.7043 21.6667 31.8151 21.6667 29.5987C21.6667 27.3824 22.4792 25.4932 24.1042 23.9311C25.7292 22.3689 27.6944 21.5879 30 21.5879C32.3056 21.5879 34.2708 22.3689 35.8958 23.9311C37.5208 25.4932 38.3333 27.3824 38.3333 29.5987C38.3333 31.8151 37.5208 33.7043 35.8958 35.2664C34.2708 36.8285 32.3056 37.6096 30 37.6096ZM5 36.0074V8.77051C5 7.88931 5.32639 7.13496 5.97917 6.50744C6.63194 5.87992 7.41667 5.56616 8.33333 5.56616H31.6667C32.5833 5.56616 33.3681 5.87992 34.0208 6.50744C34.6736 7.13496 35 7.88931 35 8.77051V19.465C34.2222 19.0912 33.4097 18.8175 32.5625 18.6439C31.7153 18.4703 30.8611 18.3835 30 18.3835H10V21.5879H21.8333C21.3611 22.0418 20.9236 22.5358 20.5208 23.0699C20.1181 23.604 19.7639 24.1781 19.4583 24.7922H10V27.9966H18.4583C18.4028 28.2636 18.3681 28.524 18.3542 28.7776C18.3403 29.0313 18.3333 29.305 18.3333 29.5987C18.3333 30.7203 18.4931 31.7951 18.8125 32.8231C19.1319 33.8512 19.6111 34.8325 20.25 35.7671L20 36.0074L17.5 33.6042L15 36.0074L12.5 33.6042L10 36.0074L7.5 33.6042L5 36.0074Z" fill="#F9F9F9"/>
</g>
</g>
</svg>
