<svg viewBox="0 0 40 40" fill="none" xmlns="http://www.w3.org/2000/svg">
<g id="local_mall">
<mask id="mask0_5_50" style="mask-type:alpha" maskUnits="userSpaceOnUse" x="0" y="0" width="40" height="40">
<rect id="Bounding box" y="0.773926" width="40" height="38.4521" fill="#D9D9D9"/>
</mask>
<g mask="url(#mask0_5_50)">
<path id="local_mall_2" d="M8.33333 36.0218C7.41667 36.0218 6.63194 35.7081 5.97917 35.0806C5.32639 34.453 5 33.6987 5 32.8175V13.5914C5 12.7102 5.32639 11.9559 5.97917 11.3284C6.63194 10.7008 7.41667 10.3871 8.33333 10.3871H11.6667C11.6667 8.17074 12.4792 6.28152 14.1042 4.7194C15.7292 3.15728 17.6944 2.37622 20 2.37622C22.3056 2.37622 24.2708 3.15728 25.8958 4.7194C27.5208 6.28152 28.3333 8.17074 28.3333 10.3871H31.6667C32.5833 10.3871 33.3681 10.7008 34.0208 11.3284C34.6736 11.9559 35 12.7102 35 13.5914V32.8175C35 33.6987 34.6736 34.453 34.0208 35.0806C33.3681 35.7081 32.5833 36.0218 31.6667 36.0218H8.33333ZM20 23.2045C22.3056 23.2045 24.2708 22.4234 25.8958 20.8613C27.5208 19.2992 28.3333 17.4099 28.3333 15.1936H25C25 16.5287 24.5139 17.6636 23.5417 18.5982C22.5694 19.5328 21.3889 20.0001 20 20.0001C18.6111 20.0001 17.4306 19.5328 16.4583 18.5982C15.4861 17.6636 15 16.5287 15 15.1936H11.6667C11.6667 17.4099 12.4792 19.2992 14.1042 20.8613C15.7292 22.4234 17.6944 23.2045 20 23.2045ZM15 10.3871H25C25 9.05194 24.5139 7.91707 23.5417 6.98247C22.5694 6.04787 21.3889 5.58057 20 5.58057C18.6111 5.58057 17.4306 6.04787 16.4583 6.98247C15.4861 7.91707 15 9.05194 15 10.3871Z" fill="#F9F9F9"/>
</g>
</g>
</svg>
