<svg viewBox="0 0 40 40" fill="none" xmlns="http://www.w3.org/2000/svg">
<g id="table_restaurant">
<mask id="mask0_4_25" style="mask-type:alpha" maskUnits="userSpaceOnUse" x="0" y="0" width="40" height="40">
<rect id="Bounding box" y="0.745361" width="40" height="38.4521" fill="#D9D9D9"/>
</mask>
<g mask="url(#mask0_4_25)">
<path id="table_restaurant_2" d="M28 18.3693H12.0416L11.5833 21.5736H28.4166L28 18.3693ZM6.66665 32.7888L8.70831 18.3693H4.99998C4.44442 18.3693 4.00692 18.1556 3.68748 17.7284C3.36804 17.3011 3.27776 16.8338 3.41665 16.3265L5.79165 8.31563C5.90276 7.96849 6.0972 7.68811 6.37498 7.47449C6.65276 7.26086 6.98609 7.15405 7.37498 7.15405H32.625C33.0139 7.15405 33.3472 7.26086 33.625 7.47449C33.9028 7.68811 34.0972 7.96849 34.2083 8.31563L36.5833 16.3265C36.7222 16.8338 36.6319 17.3011 36.3125 17.7284C35.993 18.1556 35.5555 18.3693 35 18.3693H31.3333L33.3333 32.7888H30L28.875 24.7779H11.125L9.99998 32.7888H6.66665Z" fill="#F9F9F9"/>
</g>
</g>
</svg>
