<svg viewBox="0 0 40 30" fill="none" xmlns="http://www.w3.org/2000/svg">
<path id="Vector" d="M17.7778 6.71753C17.7778 8.35651 17.0754 9.92837 15.8252 11.0873C14.5749 12.2463 12.8792 12.8973 11.1111 12.8973C9.343 12.8973 7.64731 12.2463 6.39707 11.0873C5.14682 9.92837 4.44444 8.35651 4.44444 6.71753C4.44444 5.07854 5.14682 3.50668 6.39707 2.34774C7.64731 1.1888 9.343 0.53772 11.1111 0.53772C12.8792 0.53772 14.5749 1.1888 15.8252 2.34774C17.0754 3.50668 17.7778 5.07854 17.7778 6.71753ZM35.5556 6.71753C35.5556 7.52907 35.3831 8.33267 35.0481 9.08244C34.7131 9.83221 34.222 10.5135 33.6029 11.0873C32.9839 11.6612 32.249 12.1164 31.4401 12.4269C30.6313 12.7375 29.7644 12.8973 28.8889 12.8973C28.0134 12.8973 27.1465 12.7375 26.3377 12.4269C25.5288 12.1164 24.7939 11.6612 24.1748 11.0873C23.5558 10.5135 23.0647 9.83221 22.7297 9.08244C22.3947 8.33267 22.2222 7.52907 22.2222 6.71753C22.2222 5.07854 22.9246 3.50668 24.1748 2.34774C25.4251 1.1888 27.1208 0.53772 28.8889 0.53772C30.657 0.53772 32.3527 1.1888 33.6029 2.34774C34.8532 3.50668 35.5556 5.07854 35.5556 6.71753ZM26.5111 29.3768C26.6133 28.7032 26.6667 28.0173 26.6667 27.3169C26.6718 24.0804 25.4972 20.9373 23.3333 18.3974C25.0224 17.4934 26.9384 17.0175 28.8888 17.0175C30.8392 17.0175 32.7552 17.4933 34.4443 18.3973C36.1334 19.3013 37.5361 20.6014 38.5113 22.1671C39.4865 23.7329 40 25.5089 40 27.3169V29.3768H26.5111ZM11.1111 17.0172C14.058 17.0172 16.8841 18.1024 18.9679 20.0339C21.0516 21.9655 22.2222 24.5852 22.2222 27.3169V29.3768H0V27.3169C0 24.5852 1.17063 21.9655 3.25437 20.0339C5.33811 18.1024 8.16426 17.0172 11.1111 17.0172Z" fill="#F9F9F9"/>
</svg>
